<svg xmlns="http://www.w3.org/2000/svg" xmlns:xlink="http://www.w3.org/1999/xlink" width="500" zoomAndPan="magnify" viewBox="0 0 375 374.999991" height="500" preserveAspectRatio="xMidYMid meet" version="1.0"><defs><g/><clipPath id="e0302251aa"><path d="M 231.429688 166.660156 L 248.78125 166.660156 L 248.78125 210.652344 L 231.429688 210.652344 Z M 231.429688 166.660156 " clip-rule="nonzero"/></clipPath></defs><path stroke-linecap="butt" transform="matrix(0.540469, 0, 0, 0.540469, 253.435387, 155.416175)" fill="none" stroke-linejoin="miter" d="M 75.755561 19.958505 C 75.755561 20.05969 75.755561 20.110283 75.755561 20.110283 C 75.755561 20.283743 75.755561 20.449976 75.755561 20.616209 C 75.755561 22.950698 75.719423 25.263505 75.632693 27.547402 C 75.545963 29.816844 75.509825 32.064603 75.509825 34.290679 C 75.509825 35.071252 75.52428 36.018057 75.567645 37.131095 C 75.61101 38.244134 75.654375 39.234304 75.697741 40.094379 C 75.741106 40.954454 75.755561 41.388105 75.755561 41.388105 L 75.755561 45.674026 C 75.755561 46.172725 75.545963 46.425688 75.126766 46.425688 C 70.652931 46.425688 66.627201 46.259455 63.056806 45.919761 C 59.48641 45.565613 56.631539 45.34156 54.484965 45.262057 C 52.410667 45.175327 50.141225 45.197009 47.67664 45.327105 C 45.240966 45.449972 43.593091 45.999264 42.733016 46.960524 C 41.952443 47.632684 41.569385 48.601172 41.569385 49.85876 C 41.569385 51.101894 41.605522 51.983652 41.692253 52.511261 C 41.945216 54.484374 42.646285 55.510682 43.802689 55.597412 C 44.980775 55.684143 46.513009 55.850376 48.40662 56.103339 C 49.432928 56.182842 51.124168 56.262344 53.48034 56.320165 C 55.850967 56.36353 58.481785 56.36353 61.358338 56.320165 C 64.256574 56.262344 66.945212 56.204524 69.424252 56.161159 C 71.924974 56.125021 73.782447 56.059974 75.003899 55.973244 C 75.509825 55.893741 75.755561 56.110566 75.755561 56.638175 C 75.755561 56.638175 75.755561 57.433203 75.755561 59.030485 C 75.755561 60.606085 75.741106 62.45633 75.697741 64.581221 C 75.654375 66.677203 75.654375 68.570813 75.697741 70.247598 C 75.741106 71.931611 75.755561 72.856733 75.755561 73.022966 C 75.755561 73.022966 75.755561 73.456618 75.755561 74.316693 C 75.755561 75.176768 75.755561 75.610419 75.755561 75.610419 C 75.755561 76.029615 75.545963 76.239213 75.126766 76.239213 C 74.353422 76.325944 72.777822 76.362081 70.399967 76.362081 C 68.051023 76.362081 65.37684 76.398219 62.399101 76.456039 C 59.435818 76.499404 56.617084 76.6295 53.950129 76.839098 C 51.283173 77.048696 49.22333 77.359479 47.777826 77.785903 C 46.216681 78.226782 45.031368 78.508655 44.214658 78.631523 C 43.39072 78.761618 42.718561 79.151905 42.198179 79.802381 C 41.692253 80.452858 41.135733 81.724902 40.528622 83.611285 C 39.83478 85.924092 39.748049 88.432042 40.275658 91.142362 C 40.803268 93.852683 41.142961 96.541321 41.316422 99.215504 C 41.316422 99.735885 41.049003 100.003304 40.528622 100.003304 L 4.383787 100.003304 C 3.877861 100.003304 3.624898 99.735885 3.624898 99.215504 C 3.624898 99.215504 3.64658 98.463842 3.689945 96.974972 C 3.726083 95.46442 3.747766 93.635857 3.747766 91.489283 C 3.747766 89.328255 3.747766 87.261183 3.747766 85.280843 C 3.747766 83.307729 3.711628 81.891135 3.624898 81.03106 C 3.624898 81.03106 3.624898 80.409493 3.624898 79.16636 C 3.624898 77.908771 3.624898 76.456039 3.624898 74.822619 C 3.624898 73.181972 3.624898 71.765378 3.624898 70.565609 C 3.624898 69.365841 3.624898 68.773184 3.624898 68.773184 C 3.624898 68.245575 3.64658 66.691658 3.689945 64.104205 C 3.726083 61.52398 3.747766 58.445056 3.747766 54.87466 C 3.747766 51.304265 3.747766 47.690504 3.747766 44.033378 C 3.747766 40.376252 3.747766 37.196143 3.747766 34.485823 C 3.747766 31.775502 3.711628 29.990304 3.624898 29.123002 L 3.624898 19.575446 C 3.624898 19.069519 3.877861 18.823784 4.383787 18.823784 L 75.126766 18.823784 C 75.545963 18.823784 75.755561 19.069519 75.755561 19.575446 Z M 75.755561 19.958505 " stroke="#000000" stroke-width="9.681525" stroke-opacity="1" stroke-miterlimit="4"/><g fill="#ffffff" fill-opacity="1"><g transform="translate(253.435387, 209.463058)"><g><path d="M 40.953125 -43.25 C 40.953125 -43.207031 40.953125 -43.1875 40.953125 -43.1875 C 40.953125 -43.09375 40.953125 -43 40.953125 -42.90625 C 40.953125 -41.644531 40.925781 -40.398438 40.875 -39.171875 C 40.832031 -37.941406 40.8125 -36.722656 40.8125 -35.515625 C 40.8125 -35.085938 40.820312 -34.570312 40.84375 -33.96875 C 40.863281 -33.363281 40.882812 -32.828125 40.90625 -32.359375 C 40.9375 -31.898438 40.953125 -31.671875 40.953125 -31.671875 L 40.953125 -29.375 C 40.953125 -29.09375 40.835938 -28.953125 40.609375 -28.953125 C 38.179688 -28.953125 36.003906 -29.046875 34.078125 -29.234375 C 32.148438 -29.421875 30.601562 -29.535156 29.4375 -29.578125 C 28.320312 -29.628906 27.101562 -29.617188 25.78125 -29.546875 C 24.457031 -29.472656 23.5625 -29.179688 23.09375 -28.671875 C 22.675781 -28.296875 22.46875 -27.769531 22.46875 -27.09375 C 22.46875 -26.425781 22.488281 -25.953125 22.53125 -25.671875 C 22.675781 -24.597656 23.0625 -24.035156 23.6875 -23.984375 C 24.3125 -23.941406 25.132812 -23.851562 26.15625 -23.71875 C 26.71875 -23.675781 27.640625 -23.640625 28.921875 -23.609375 C 30.203125 -23.585938 31.617188 -23.585938 33.171875 -23.609375 C 34.734375 -23.640625 36.1875 -23.664062 37.53125 -23.6875 C 38.882812 -23.707031 39.882812 -23.742188 40.53125 -23.796875 C 40.8125 -23.835938 40.953125 -23.71875 40.953125 -23.4375 C 40.953125 -23.4375 40.953125 -23.003906 40.953125 -22.140625 C 40.953125 -21.285156 40.9375 -20.285156 40.90625 -19.140625 C 40.882812 -18.003906 40.882812 -16.984375 40.90625 -16.078125 C 40.9375 -15.171875 40.953125 -14.671875 40.953125 -14.578125 C 40.953125 -14.578125 40.953125 -14.34375 40.953125 -13.875 C 40.953125 -13.414062 40.953125 -13.1875 40.953125 -13.1875 C 40.953125 -12.957031 40.835938 -12.84375 40.609375 -12.84375 C 40.179688 -12.789062 39.328125 -12.765625 38.046875 -12.765625 C 36.773438 -12.765625 35.335938 -12.753906 33.734375 -12.734375 C 32.128906 -12.710938 30.601562 -12.640625 29.15625 -12.515625 C 27.71875 -12.398438 26.601562 -12.226562 25.8125 -12 C 24.976562 -11.769531 24.335938 -11.617188 23.890625 -11.546875 C 23.453125 -11.472656 23.09375 -11.257812 22.8125 -10.90625 C 22.53125 -10.5625 22.226562 -9.878906 21.90625 -8.859375 C 21.53125 -7.597656 21.484375 -6.234375 21.765625 -4.765625 C 22.046875 -3.304688 22.234375 -1.859375 22.328125 -0.421875 C 22.328125 -0.140625 22.1875 0 21.90625 0 L 2.375 0 C 2.09375 0 1.953125 -0.140625 1.953125 -0.421875 C 1.953125 -0.421875 1.960938 -0.828125 1.984375 -1.640625 C 2.003906 -2.453125 2.015625 -3.4375 2.015625 -4.59375 C 2.015625 -5.757812 2.015625 -6.878906 2.015625 -7.953125 C 2.015625 -9.023438 1.992188 -9.789062 1.953125 -10.25 C 1.953125 -10.25 1.953125 -10.585938 1.953125 -11.265625 C 1.953125 -11.941406 1.953125 -12.722656 1.953125 -13.609375 C 1.953125 -14.492188 1.953125 -15.257812 1.953125 -15.90625 C 1.953125 -16.5625 1.953125 -16.890625 1.953125 -16.890625 C 1.953125 -17.160156 1.960938 -17.992188 1.984375 -19.390625 C 2.003906 -20.785156 2.015625 -22.445312 2.015625 -24.375 C 2.015625 -26.3125 2.015625 -28.265625 2.015625 -30.234375 C 2.015625 -32.210938 2.015625 -33.9375 2.015625 -35.40625 C 2.015625 -36.875 1.992188 -37.835938 1.953125 -38.296875 L 1.953125 -43.46875 C 1.953125 -43.738281 2.09375 -43.875 2.375 -43.875 L 40.609375 -43.875 C 40.835938 -43.875 40.953125 -43.738281 40.953125 -43.46875 Z M 40.953125 -43.25 "/></g></g></g><path stroke-linecap="butt" transform="matrix(0.540469, 0, 0, 0.540469, 187.499992, 157.225406)" fill="none" stroke-linejoin="miter" d="M 74.877136 18.822606 C 74.963866 18.902109 75.043369 19.032204 75.130099 19.198437 C 75.296332 20.918587 75.36138 22.364091 75.318015 23.513267 C 75.274649 24.669671 75.209602 25.963397 75.130099 27.394446 C 75.043369 28.818268 75.000004 30.950387 75.000004 33.790803 C 75.000004 34.817111 75.086734 36.320435 75.252967 38.293549 C 75.4192 40.273889 75.549295 41.769986 75.636025 42.803522 C 75.636025 43.576867 75.245739 43.967153 74.465167 43.967153 C 71.545248 43.88765 68.198906 43.735872 64.411685 43.526274 C 60.631691 43.316676 57.082978 43.12876 53.765546 42.962527 C 50.440886 42.774612 48.055804 42.673426 46.6103 42.673426 C 43.415735 42.760157 40.63314 43.020348 38.255285 43.461226 C 35.906341 43.88765 34.728255 44.870593 34.728255 46.42451 C 34.728255 48.065157 35.176361 49.062555 36.079801 49.423931 C 36.983241 49.756397 37.785496 49.965996 38.479338 50.052726 C 40.792145 50.471922 42.721893 50.616472 44.27581 50.493605 C 45.829727 50.363509 47.983529 50.385192 50.737214 50.558652 C 53.570403 50.724885 56.367454 51.115171 59.121139 51.722283 C 61.874825 52.329395 64.317727 53.536391 66.464301 55.343271 C 67.678524 56.376807 68.993933 57.684988 70.4033 59.282271 C 71.827122 60.85787 73.041345 63.16345 74.024288 66.184553 C 75.014459 69.191202 75.50593 73.440985 75.50593 78.948356 C 75.50593 80.169807 75.224057 81.94055 74.653083 84.275039 C 74.111018 86.587846 73.019663 88.994611 71.379015 91.488106 C 70.598443 92.608372 69.348082 93.83705 67.627932 95.181369 C 65.907782 96.504006 63.970806 97.508631 61.83146 98.202473 C 58.991044 99.062548 56.1434 99.539565 53.288529 99.619067 C 50.455341 99.705798 48.395497 99.749163 47.116226 99.749163 C 46.776533 99.749163 45.504489 99.770845 43.300095 99.81421 C 41.117383 99.850348 38.407063 99.87203 35.169133 99.87203 C 31.952886 99.87203 28.584861 99.893713 25.050603 99.937078 C 21.523573 99.980443 18.184458 100.002126 15.033259 100.002126 C 11.903742 100.002126 9.359655 100.002126 7.408224 100.002126 C 5.471248 100.002126 4.509988 100.002126 4.509988 100.002126 C 3.729415 100.002126 3.339129 99.655205 3.339129 98.961363 C 3.339129 97.927827 3.360812 96.901519 3.404177 95.875211 C 3.469225 94.841676 3.5415 93.815368 3.621003 92.781832 C 3.794463 90.201607 3.852283 87.592472 3.816146 84.968881 C 3.772781 82.345291 3.751098 79.736156 3.751098 77.155931 C 3.751098 76.375359 4.141384 76.028438 4.914729 76.115168 C 5.861534 76.194671 6.996255 76.238036 8.318892 76.238036 C 9.663211 76.238036 10.891889 76.259718 12.004927 76.303083 C 13.117966 76.346448 13.855173 76.368131 14.209321 76.368131 C 15.49582 76.469316 17.24488 76.541592 19.478185 76.584957 C 21.725944 76.628322 24.096571 76.606639 26.597293 76.519909 C 29.098015 76.418724 31.439732 76.281401 33.622444 76.115168 C 35.812383 75.941707 37.51085 75.695972 38.732301 75.356278 C 40.539182 74.915399 41.485987 73.787906 41.56549 71.981026 C 41.65222 70.954718 41.153521 70.253648 40.083848 69.870589 C 39.014175 69.473076 37.698766 69.270705 36.144849 69.270705 C 34.590932 69.270705 33.037015 69.335753 31.483097 69.465848 C 29.950863 69.588716 28.751094 69.653764 27.891019 69.653764 C 25.137334 69.841679 22.448696 69.747721 19.825106 69.37189 C 17.194288 68.967149 14.715248 67.991434 12.387986 66.437517 C 10.660608 65.324478 9.128374 63.886202 7.784055 62.122686 C 6.461419 60.359171 5.464021 58.530608 4.791861 56.636998 C 3.317447 52.748591 2.775383 48.708407 3.151214 44.501989 C 3.548727 40.281117 4.611173 36.27707 6.331323 32.497076 C 7.364859 30.249317 8.64413 28.225611 10.176365 26.418731 C 11.730282 24.611851 13.594982 23.188029 15.756011 22.161721 C 17.562891 21.301646 19.434819 20.535529 21.364568 19.863369 C 23.301543 19.169527 25.252974 18.822606 27.226087 18.822606 Z M 74.877136 18.822606 " stroke="#000000" stroke-width="9.681525" stroke-opacity="1" stroke-miterlimit="4"/><g fill="#ffffff" fill-opacity="1"><g transform="translate(187.499992, 211.272289)"><g><path d="M 40.46875 -43.875 C 40.507812 -43.832031 40.554688 -43.765625 40.609375 -43.671875 C 40.703125 -42.742188 40.734375 -41.960938 40.703125 -41.328125 C 40.679688 -40.703125 40.644531 -40.003906 40.59375 -39.234375 C 40.550781 -38.472656 40.53125 -37.328125 40.53125 -35.796875 C 40.53125 -35.234375 40.578125 -34.414062 40.671875 -33.34375 C 40.765625 -32.28125 40.832031 -31.46875 40.875 -30.90625 C 40.875 -30.488281 40.664062 -30.28125 40.25 -30.28125 C 38.664062 -30.320312 36.851562 -30.398438 34.8125 -30.515625 C 32.769531 -30.640625 30.851562 -30.742188 29.0625 -30.828125 C 27.269531 -30.921875 25.976562 -30.96875 25.1875 -30.96875 C 23.46875 -30.925781 21.96875 -30.785156 20.6875 -30.546875 C 19.40625 -30.316406 18.765625 -29.785156 18.765625 -28.953125 C 18.765625 -28.066406 19.007812 -27.53125 19.5 -27.34375 C 19.988281 -27.15625 20.421875 -27.039062 20.796875 -27 C 22.046875 -26.769531 23.085938 -26.6875 23.921875 -26.75 C 24.765625 -26.820312 25.929688 -26.8125 27.421875 -26.71875 C 28.953125 -26.625 30.460938 -26.414062 31.953125 -26.09375 C 33.441406 -25.769531 34.765625 -25.117188 35.921875 -24.140625 C 36.578125 -23.578125 37.285156 -22.863281 38.046875 -22 C 38.816406 -21.144531 39.46875 -19.90625 40 -18.28125 C 40.539062 -16.65625 40.8125 -14.351562 40.8125 -11.375 C 40.8125 -10.71875 40.660156 -9.757812 40.359375 -8.5 C 40.054688 -7.25 39.460938 -5.953125 38.578125 -4.609375 C 38.160156 -4.003906 37.484375 -3.335938 36.546875 -2.609375 C 35.617188 -1.890625 34.578125 -1.347656 33.421875 -0.984375 C 31.878906 -0.515625 30.34375 -0.253906 28.8125 -0.203125 C 27.28125 -0.160156 26.164062 -0.140625 25.46875 -0.140625 C 25.28125 -0.140625 24.59375 -0.125 23.40625 -0.09375 C 22.21875 -0.0703125 20.75 -0.0625 19 -0.0625 C 17.257812 -0.0625 15.4375 -0.0507812 13.53125 -0.03125 C 11.625 -0.0078125 9.820312 0 8.125 0 C 6.425781 0 5.050781 0 4 0 C 2.957031 0 2.4375 0 2.4375 0 C 2.019531 0 1.8125 -0.1875 1.8125 -0.5625 C 1.8125 -1.113281 1.820312 -1.664062 1.84375 -2.21875 C 1.875 -2.78125 1.910156 -3.34375 1.953125 -3.90625 C 2.046875 -5.300781 2.078125 -6.707031 2.046875 -8.125 C 2.023438 -9.539062 2.015625 -10.945312 2.015625 -12.34375 C 2.015625 -12.757812 2.226562 -12.945312 2.65625 -12.90625 C 3.164062 -12.863281 3.78125 -12.84375 4.5 -12.84375 C 5.21875 -12.84375 5.878906 -12.828125 6.484375 -12.796875 C 7.085938 -12.773438 7.484375 -12.765625 7.671875 -12.765625 C 8.367188 -12.722656 9.320312 -12.6875 10.53125 -12.65625 C 11.738281 -12.632812 13.015625 -12.644531 14.359375 -12.6875 C 15.710938 -12.738281 16.984375 -12.8125 18.171875 -12.90625 C 19.359375 -13 20.273438 -13.140625 20.921875 -13.328125 C 21.898438 -13.554688 22.414062 -14.160156 22.46875 -15.140625 C 22.507812 -15.691406 22.238281 -16.070312 21.65625 -16.28125 C 21.082031 -16.5 20.375 -16.609375 19.53125 -16.609375 C 18.695312 -16.609375 17.859375 -16.570312 17.015625 -16.5 C 16.179688 -16.425781 15.53125 -16.390625 15.0625 -16.390625 C 13.582031 -16.296875 12.128906 -16.351562 10.703125 -16.5625 C 9.285156 -16.78125 7.953125 -17.304688 6.703125 -18.140625 C 5.765625 -18.742188 4.9375 -19.519531 4.21875 -20.46875 C 3.5 -21.425781 2.953125 -22.414062 2.578125 -23.4375 C 1.785156 -25.53125 1.492188 -27.71875 1.703125 -30 C 1.910156 -32.28125 2.484375 -34.441406 3.421875 -36.484375 C 3.972656 -37.691406 4.664062 -38.785156 5.5 -39.765625 C 6.34375 -40.742188 7.347656 -41.507812 8.515625 -42.0625 C 9.484375 -42.53125 10.488281 -42.945312 11.53125 -43.3125 C 12.582031 -43.6875 13.644531 -43.875 14.71875 -43.875 Z M 40.46875 -43.875 "/></g></g></g><path stroke-linecap="butt" transform="matrix(0.540469, 0, 0, 0.540469, 285.652632, 155.416175)" fill="none" stroke-linejoin="miter" d="M 42.981536 18.823784 L 74.341751 18.823784 C 74.6959 18.823784 74.78263 19.069519 74.594714 19.575446 C 74.507984 19.936822 74.182746 21.100453 73.618999 23.073566 C 73.069707 25.04668 72.404775 27.511264 71.631431 30.452866 C 70.850858 33.372784 70.012466 36.350523 69.109026 39.400537 C 68.205585 42.443324 67.323828 45.175327 66.463753 47.589319 C 65.177254 51.28981 63.825707 54.75902 62.394658 57.989722 C 60.992519 61.205969 59.792751 63.872924 58.80258 65.997816 C 57.819637 68.101024 57.284801 69.409206 57.19807 69.936815 C 56.923425 71.302816 56.764419 72.480902 56.721054 73.463845 C 56.684916 74.454016 56.663234 75.639329 56.663234 77.027013 C 56.663234 78.667661 56.619869 80.322763 56.533138 82.006775 C 56.453636 83.661878 56.366905 85.31698 56.280175 86.9504 C 56.200672 89.031926 56.135625 91.12068 56.09226 93.223889 C 56.048895 95.327097 56.113942 97.415851 56.280175 99.497377 C 56.280175 99.829843 56.157307 100.003304 55.904344 100.003304 L 18.841615 100.003304 C 18.675382 100.003304 18.595879 99.829843 18.595879 99.497377 C 18.595879 99.309462 18.595879 98.406021 18.595879 96.787057 C 18.595879 95.146409 18.617561 93.173296 18.653699 90.860489 C 18.697064 88.526 18.740429 86.155373 18.783794 83.741381 C 18.82716 81.320161 18.863297 79.188042 18.906662 77.345024 C 18.950027 75.494779 18.97171 74.2661 18.97171 73.651761 C 18.97171 72.119526 18.88498 71.122128 18.718747 70.659567 C 18.552514 70.175323 18.248958 69.242973 17.808079 67.855289 C 17.634619 67.248177 16.926321 65.542482 15.661505 62.752659 C 14.425599 59.955608 13.037915 56.240662 11.50568 51.593366 C 10.537193 48.398801 9.539795 45.095824 8.506259 41.669979 C 7.479951 38.222451 6.554828 34.933929 5.738118 31.804412 C 4.914181 28.653213 4.198656 25.964575 3.591545 23.738498 C 3.006115 21.490739 2.623057 20.05969 2.456824 19.452578 C 2.377321 19.033382 2.500189 18.823784 2.832655 18.823784 L 33.817039 18.823784 C 34.062775 18.823784 34.19287 18.990017 34.19287 19.322483 C 34.380785 22.68328 34.640976 26.051305 34.98067 29.412103 C 35.313136 32.751217 35.703422 36.09756 36.144301 39.465585 C 36.317761 40.578623 36.910418 41.135142 37.943954 41.135142 C 38.717298 41.135142 39.273817 40.578623 39.613511 39.465585 C 39.967659 38.265816 40.292898 36.639624 40.589226 34.57978 C 40.907237 32.498254 41.189111 30.366135 41.442074 28.183424 C 41.695037 25.971802 41.926318 24.027599 42.135916 22.350814 C 42.367197 20.666802 42.518975 19.618811 42.605705 19.199615 C 42.692435 18.946652 42.815303 18.823784 42.981536 18.823784 Z M 42.981536 18.823784 " stroke="#000000" stroke-width="9.681525" stroke-opacity="1" stroke-miterlimit="4"/><g fill="#ffffff" fill-opacity="1"><g transform="translate(285.652632, 209.463058)"><g><path d="M 23.234375 -43.875 L 40.1875 -43.875 C 40.375 -43.875 40.421875 -43.738281 40.328125 -43.46875 C 40.273438 -43.28125 40.097656 -42.648438 39.796875 -41.578125 C 39.492188 -40.503906 39.132812 -39.175781 38.71875 -37.59375 C 38.300781 -36.019531 37.847656 -34.40625 37.359375 -32.75 C 36.867188 -31.101562 36.390625 -29.628906 35.921875 -28.328125 C 35.222656 -26.328125 34.488281 -24.453125 33.71875 -22.703125 C 32.957031 -20.960938 32.304688 -19.519531 31.765625 -18.375 C 31.234375 -17.238281 30.945312 -16.53125 30.90625 -16.25 C 30.769531 -15.507812 30.6875 -14.867188 30.65625 -14.328125 C 30.632812 -13.796875 30.625 -13.160156 30.625 -12.421875 C 30.625 -11.535156 30.597656 -10.640625 30.546875 -9.734375 C 30.503906 -8.828125 30.460938 -7.929688 30.421875 -7.046875 C 30.367188 -5.929688 30.332031 -4.800781 30.3125 -3.65625 C 30.289062 -2.519531 30.328125 -1.394531 30.421875 -0.28125 C 30.421875 -0.09375 30.347656 0 30.203125 0 L 10.1875 0 C 10.09375 0 10.046875 -0.09375 10.046875 -0.28125 C 10.046875 -0.375 10.046875 -0.859375 10.046875 -1.734375 C 10.046875 -2.617188 10.054688 -3.691406 10.078125 -4.953125 C 10.097656 -6.210938 10.117188 -7.492188 10.140625 -8.796875 C 10.171875 -10.097656 10.195312 -11.25 10.21875 -12.25 C 10.238281 -13.25 10.25 -13.910156 10.25 -14.234375 C 10.25 -15.066406 10.203125 -15.609375 10.109375 -15.859375 C 10.015625 -16.117188 9.851562 -16.625 9.625 -17.375 C 9.53125 -17.695312 9.144531 -18.613281 8.46875 -20.125 C 7.800781 -21.632812 7.046875 -23.644531 6.203125 -26.15625 C 5.691406 -27.882812 5.15625 -29.675781 4.59375 -31.53125 C 4.039062 -33.394531 3.539062 -35.175781 3.09375 -36.875 C 2.65625 -38.570312 2.273438 -40.023438 1.953125 -41.234375 C 1.628906 -42.441406 1.421875 -43.207031 1.328125 -43.53125 C 1.273438 -43.757812 1.34375 -43.875 1.53125 -43.875 L 18.28125 -43.875 C 18.414062 -43.875 18.484375 -43.785156 18.484375 -43.609375 C 18.578125 -41.785156 18.71875 -39.96875 18.90625 -38.15625 C 19.09375 -36.34375 19.300781 -34.53125 19.53125 -32.71875 C 19.625 -32.113281 19.953125 -31.8125 20.515625 -31.8125 C 20.929688 -31.8125 21.234375 -32.113281 21.421875 -32.71875 C 21.609375 -33.375 21.78125 -34.257812 21.9375 -35.375 C 22.101562 -36.488281 22.253906 -37.640625 22.390625 -38.828125 C 22.535156 -40.015625 22.664062 -41.0625 22.78125 -41.96875 C 22.894531 -42.875 22.972656 -43.441406 23.015625 -43.671875 C 23.066406 -43.804688 23.140625 -43.875 23.234375 -43.875 Z M 23.234375 -43.875 "/></g></g></g><path stroke-linecap="butt" transform="matrix(0.540469, 0, 0, 0.540469, 149.458192, 157.225406)" fill="none" stroke-linejoin="miter" d="M 74.340136 79.483193 C 74.340136 80.343268 74.383502 81.803227 74.470232 83.863071 C 74.549735 85.922914 74.636465 88.120081 74.715968 90.45457 C 74.82438 92.760149 74.918338 94.754945 75.005068 96.438958 C 75.084571 98.12297 75.127936 98.961363 75.127936 98.961363 C 75.127936 99.655205 74.73765 100.002126 73.964305 100.002126 C 73.964305 100.002126 73.082548 100.002126 71.319033 100.002126 C 69.54829 100.002126 67.249938 100.002126 64.41675 100.002126 C 61.576334 100.002126 58.562457 100.002126 55.367893 100.002126 C 52.195011 100.002126 49.202817 100.002126 46.391311 100.002126 C 43.594261 100.002126 41.295909 100.002126 39.489028 100.002126 C 37.682148 100.002126 36.822073 100.002126 36.901576 100.002126 C 37.429185 100.002126 36.995534 100.002126 35.60785 100.002126 C 34.241848 100.002126 32.377147 99.87203 29.999293 99.619067 C 27.650349 99.351649 25.243584 98.917998 22.786227 98.332568 C 20.328869 97.718229 18.276253 96.778651 16.635606 95.492153 C 13.383221 93.07816 10.774086 90.671396 8.822655 88.279086 C 6.892907 85.857867 5.591953 83.610107 4.912566 81.535809 C 4.392185 80.083077 4.023581 78.456885 3.813983 76.650004 C 3.604385 74.843124 3.445379 73.159112 3.336967 71.605194 C 3.257464 70.051277 3.170734 68.887646 3.091231 68.107074 C 3.091231 68.107074 3.091231 68.063709 3.091231 67.984206 L 3.091231 52.763046 C 3.091231 50.869436 3.235781 48.96137 3.53211 47.024394 C 3.842893 45.072964 4.168132 43.576867 4.507825 42.550559 C 5.3679 39.883603 6.227975 37.563569 7.08805 35.583228 C 7.955353 33.610115 9.241852 31.456313 10.969229 29.129051 C 11.908807 27.76305 13.614502 26.281408 16.071859 24.684126 C 18.529217 23.086844 21.304585 21.706387 24.390736 20.557211 C 27.498571 19.400808 30.512447 18.822606 33.439593 18.822606 C 33.439593 18.822606 34.400853 18.822606 36.337829 18.822606 C 38.267577 18.822606 40.775527 18.822606 43.868906 18.822606 C 46.976741 18.822606 50.250808 18.822606 53.698335 18.822606 C 57.145863 18.822606 60.412703 18.822606 63.498854 18.822606 C 66.606689 18.822606 69.129094 18.822606 71.066069 18.822606 C 72.995817 18.822606 73.964305 18.822606 73.964305 18.822606 C 74.73765 18.822606 75.127936 19.198437 75.127936 19.957327 C 75.127936 19.957327 75.127936 21.034228 75.127936 23.202484 C 75.127936 25.34183 75.106254 28.030468 75.062889 31.268398 C 75.026751 34.484645 74.983386 37.773167 74.940021 41.133964 C 74.896656 44.494762 74.874973 47.38577 74.874973 49.799763 C 74.874973 50.573107 74.484687 50.912801 73.711342 50.804388 C 72.764537 50.804388 71.188937 50.782705 68.984543 50.746568 C 66.801832 50.703203 64.330019 50.638155 61.576334 50.558652 C 58.822648 50.471922 56.07619 50.406874 53.322504 50.363509 C 50.568819 50.327372 48.176509 50.305689 46.138348 50.305689 C 44.12187 50.305689 42.719731 50.305689 41.946386 50.305689 C 40.99958 50.385192 39.89377 50.450239 38.636181 50.493605 C 37.393047 50.53697 36.222189 50.941711 35.109151 51.722283 C 33.996112 52.495628 33.21554 53.998952 32.774661 56.225029 C 32.521698 57.778946 32.377147 59.643647 32.333782 61.804676 C 32.290417 63.951249 32.268735 65.577442 32.268735 66.69048 C 32.102502 69.270705 32.760206 71.345004 34.256303 72.898921 C 35.766855 74.452838 38.332625 75.23341 41.946386 75.23341 C 44.107415 75.23341 45.357776 74.886489 45.697469 74.192647 C 46.029935 73.498805 46.160031 72.082211 46.0733 69.935637 C 45.98657 68.714186 46.008253 66.907306 46.138348 64.514996 C 46.261216 62.101004 46.326264 60.200166 46.326264 58.812482 C 46.427449 58.559518 46.586454 58.20537 46.796053 57.742809 C 47.005651 57.258565 47.627218 57.012829 48.653526 57.012829 C 48.740256 57.012829 49.643696 57.012829 51.363846 57.012829 C 53.091224 57.012829 55.158295 57.012829 57.572287 57.012829 C 59.993507 57.012829 62.400271 57.034511 64.792581 57.077877 C 67.206573 57.121242 69.259189 57.142924 70.935974 57.142924 C 72.619986 57.142924 73.501744 57.099559 73.581247 57.012829 C 74.361819 57.012829 74.752105 57.403115 74.752105 58.183687 C 74.752105 59.043762 74.752105 59.92552 74.752105 60.82896 C 74.752105 61.7324 74.701513 62.614158 74.5931 63.474233 C 74.5931 65.70031 74.571417 67.59392 74.528052 69.147837 C 74.484687 70.701754 74.448549 72.255671 74.405184 73.809588 C 74.361819 75.349051 74.340136 77.235434 74.340136 79.483193 Z M 74.340136 79.483193 " stroke="#000000" stroke-width="9.681525" stroke-opacity="1" stroke-miterlimit="4"/><g fill="#ffffff" fill-opacity="1"><g transform="translate(149.458192, 211.272289)"><g><path d="M 40.1875 -11.09375 C 40.1875 -10.625 40.207031 -9.832031 40.25 -8.71875 C 40.300781 -7.601562 40.347656 -6.414062 40.390625 -5.15625 C 40.441406 -3.90625 40.488281 -2.828125 40.53125 -1.921875 C 40.582031 -1.015625 40.609375 -0.5625 40.609375 -0.5625 C 40.609375 -0.1875 40.394531 0 39.96875 0 C 39.96875 0 39.488281 0 38.53125 0 C 37.582031 0 36.34375 0 34.8125 0 C 33.28125 0 31.648438 0 29.921875 0 C 28.203125 0 26.585938 0 25.078125 0 C 23.566406 0 22.320312 0 21.34375 0 C 20.375 0 19.910156 0 19.953125 0 C 20.234375 0 20 0 19.25 0 C 18.507812 0 17.5 -0.0664062 16.21875 -0.203125 C 14.9375 -0.347656 13.632812 -0.582031 12.3125 -0.90625 C 10.988281 -1.226562 9.882812 -1.738281 9 -2.4375 C 7.226562 -3.738281 5.816406 -5.039062 4.765625 -6.34375 C 3.722656 -7.644531 3.019531 -8.851562 2.65625 -9.96875 C 2.375 -10.757812 2.175781 -11.644531 2.0625 -12.625 C 1.945312 -13.601562 1.863281 -14.507812 1.8125 -15.34375 C 1.769531 -16.1875 1.722656 -16.816406 1.671875 -17.234375 C 1.671875 -17.234375 1.671875 -17.253906 1.671875 -17.296875 L 1.671875 -25.53125 C 1.671875 -26.550781 1.75 -27.582031 1.90625 -28.625 C 2.070312 -29.675781 2.25 -30.484375 2.4375 -31.046875 C 2.90625 -32.484375 3.367188 -33.738281 3.828125 -34.8125 C 4.296875 -35.882812 5 -37.046875 5.9375 -38.296875 C 6.445312 -39.046875 7.363281 -39.847656 8.6875 -40.703125 C 10.007812 -41.566406 11.507812 -42.3125 13.1875 -42.9375 C 14.863281 -43.5625 16.488281 -43.875 18.0625 -43.875 C 18.0625 -43.875 18.582031 -43.875 19.625 -43.875 C 20.675781 -43.875 22.039062 -43.875 23.71875 -43.875 C 25.394531 -43.875 27.160156 -43.875 29.015625 -43.875 C 30.878906 -43.875 32.648438 -43.875 34.328125 -43.875 C 36.003906 -43.875 37.363281 -43.875 38.40625 -43.875 C 39.445312 -43.875 39.96875 -43.875 39.96875 -43.875 C 40.394531 -43.875 40.609375 -43.664062 40.609375 -43.25 C 40.609375 -43.25 40.609375 -42.664062 40.609375 -41.5 C 40.609375 -40.34375 40.59375 -38.890625 40.5625 -37.140625 C 40.539062 -35.398438 40.519531 -33.625 40.5 -31.8125 C 40.476562 -30 40.46875 -28.441406 40.46875 -27.140625 C 40.46875 -26.722656 40.257812 -26.535156 39.84375 -26.578125 C 39.320312 -26.578125 38.46875 -26.585938 37.28125 -26.609375 C 36.101562 -26.640625 34.769531 -26.675781 33.28125 -26.71875 C 31.789062 -26.769531 30.300781 -26.804688 28.8125 -26.828125 C 27.320312 -26.847656 26.03125 -26.859375 24.9375 -26.859375 C 23.84375 -26.859375 23.085938 -26.859375 22.671875 -26.859375 C 22.160156 -26.816406 21.566406 -26.78125 20.890625 -26.75 C 20.222656 -26.726562 19.582031 -26.507812 18.96875 -26.09375 C 18.363281 -25.675781 17.945312 -24.863281 17.71875 -23.65625 C 17.582031 -22.8125 17.5 -21.804688 17.46875 -20.640625 C 17.445312 -19.484375 17.4375 -18.601562 17.4375 -18 C 17.34375 -16.601562 17.703125 -15.484375 18.515625 -14.640625 C 19.335938 -13.804688 20.722656 -13.390625 22.671875 -13.390625 C 23.835938 -13.390625 24.507812 -13.578125 24.6875 -13.953125 C 24.875 -14.328125 24.945312 -15.09375 24.90625 -16.25 C 24.863281 -16.90625 24.875 -17.882812 24.9375 -19.1875 C 25.007812 -20.488281 25.046875 -21.507812 25.046875 -22.25 C 25.085938 -22.394531 25.164062 -22.59375 25.28125 -22.84375 C 25.40625 -23.101562 25.742188 -23.234375 26.296875 -23.234375 C 26.347656 -23.234375 26.835938 -23.234375 27.765625 -23.234375 C 28.691406 -23.234375 29.804688 -23.234375 31.109375 -23.234375 C 32.410156 -23.234375 33.710938 -23.21875 35.015625 -23.1875 C 36.316406 -23.164062 37.421875 -23.15625 38.328125 -23.15625 C 39.242188 -23.15625 39.722656 -23.179688 39.765625 -23.234375 C 40.179688 -23.234375 40.390625 -23.023438 40.390625 -22.609375 C 40.390625 -22.140625 40.390625 -21.660156 40.390625 -21.171875 C 40.390625 -20.679688 40.367188 -20.207031 40.328125 -19.75 C 40.328125 -18.539062 40.3125 -17.515625 40.28125 -16.671875 C 40.257812 -15.835938 40.238281 -15 40.21875 -14.15625 C 40.195312 -13.320312 40.1875 -12.300781 40.1875 -11.09375 Z M 40.1875 -11.09375 "/></g></g></g><g clip-path="url(#e0302251aa)"><path fill="#ffffff" d="M 231.429688 166.660156 L 248.78125 166.660156 L 248.78125 210.640625 L 231.429688 210.640625 Z M 231.429688 166.660156 " fill-opacity="1" fill-rule="nonzero"/></g><path stroke-linecap="butt" transform="matrix(0.540469, 0, 0, 0.540469, 115.139733, 157.374246)" fill="none" stroke-linejoin="miter" d="M 74.878772 43.843539 C 74.878772 46.091298 74.878772 48.808846 74.878772 52.00341 C 74.878772 55.176292 74.878772 58.356402 74.878772 61.550966 C 74.878772 64.723848 74.878772 67.383576 74.878772 69.522922 C 74.878772 72.890947 74.466803 75.774728 73.650093 78.195948 C 72.826156 80.588257 71.76371 82.995022 70.462756 85.409014 C 69.349718 87.468858 67.976489 89.297421 66.335842 90.894703 C 64.716877 92.491985 63.003954 93.843532 61.197074 94.95657 C 58.949315 96.344254 56.679873 97.507885 54.395976 98.45469 C 52.126535 99.401495 49.098203 99.871284 45.318209 99.871284 C 44.7906 99.871284 43.648652 99.871284 41.885137 99.871284 C 40.114394 99.871284 38.206328 99.871284 36.146485 99.871284 C 34.086641 99.871284 32.258078 99.871284 30.660796 99.871284 C 29.063514 99.871284 28.225121 99.871284 28.138391 99.871284 C 24.611361 99.705051 21.293928 98.823294 18.186094 97.226011 C 15.092715 95.628729 12.606448 93.886897 10.712837 91.993286 C 9.686529 90.966978 8.580718 89.463654 7.402632 87.49054 C 6.253457 85.495744 5.284969 83.421446 4.504396 81.282099 C 3.731052 79.135526 3.340765 77.249142 3.340765 75.608495 C 3.340765 74.408727 3.340765 72.435613 3.340765 69.681928 C 3.340765 66.913787 3.340765 63.856545 3.340765 60.510203 C 3.340765 57.149406 3.340765 53.925931 3.340765 50.839779 C 3.340765 47.731945 3.340765 45.231223 3.340765 43.337612 C 3.340765 39.644349 3.918967 36.391964 5.075371 33.602141 C 6.253457 30.783408 7.612231 28.571786 9.173375 26.952821 C 11.919833 24.01122 14.514513 22.045334 16.957416 21.055164 C 19.414773 20.072221 22.406967 19.363924 25.933997 18.944728 C 26.020727 18.865225 26.967533 18.843542 28.774413 18.886908 C 30.581293 18.923045 32.792915 18.944728 35.423733 18.944728 C 38.047323 18.944728 40.670913 18.944728 43.301731 18.944728 C 45.925321 18.944728 48.05744 18.944728 49.698087 18.944728 C 53.058885 18.944728 56.159491 19.421744 58.99268 20.368549 C 61.833096 21.308127 64.413321 22.898182 66.74781 25.124258 C 69.14012 27.372018 71.091551 30.241344 72.60933 33.725009 C 74.119882 37.215902 74.878772 40.583927 74.878772 43.843539 Z M 33.811995 67.101702 C 33.811995 70.440817 34.267329 72.659666 35.170769 73.751022 C 36.07421 74.820695 37.216158 75.355532 38.603842 75.355532 C 40.323992 75.355532 41.400893 74.582187 41.820089 73.021042 C 42.260968 71.467125 42.477794 70.216764 42.477794 69.277186 C 42.477794 66.017574 42.542841 62.584502 42.672937 58.970741 C 42.795804 55.335298 42.817487 52.321421 42.730757 49.921884 C 42.564524 47.948771 42.260968 46.271986 41.820089 44.884302 C 41.400893 43.496618 40.323992 42.802776 38.603842 42.802776 C 37.049925 42.802776 35.944114 43.214744 35.293637 44.031454 C 34.664843 44.848164 34.252874 45.809425 34.064959 46.90078 C 33.898726 47.970453 33.811995 48.844984 33.811995 49.517143 C 33.811995 50.377218 33.811995 51.786585 33.811995 53.738016 C 33.811995 55.667764 33.811995 57.843248 33.811995 60.264467 C 33.811995 62.656777 33.811995 64.933446 33.811995 67.101702 Z M 33.811995 67.101702 " stroke="#000000" stroke-width="9.681525" stroke-opacity="1" stroke-miterlimit="4"/><g fill="#ffffff" fill-opacity="1"><g transform="translate(115.139733, 211.421129)"><g><path d="M 40.46875 -30.34375 C 40.46875 -29.132812 40.46875 -27.671875 40.46875 -25.953125 C 40.46875 -24.234375 40.46875 -22.507812 40.46875 -20.78125 C 40.46875 -19.0625 40.46875 -17.625 40.46875 -16.46875 C 40.46875 -14.65625 40.242188 -13.097656 39.796875 -11.796875 C 39.359375 -10.492188 38.789062 -9.191406 38.09375 -7.890625 C 37.488281 -6.765625 36.742188 -5.769531 35.859375 -4.90625 C 34.972656 -4.050781 34.039062 -3.320312 33.0625 -2.71875 C 31.851562 -1.976562 30.632812 -1.347656 29.40625 -0.828125 C 28.175781 -0.316406 26.535156 -0.0625 24.484375 -0.0625 C 24.203125 -0.0625 23.582031 -0.0625 22.625 -0.0625 C 21.675781 -0.0625 20.644531 -0.0625 19.53125 -0.0625 C 18.414062 -0.0625 17.425781 -0.0625 16.5625 -0.0625 C 15.707031 -0.0625 15.253906 -0.0625 15.203125 -0.0625 C 13.296875 -0.15625 11.503906 -0.632812 9.828125 -1.5 C 8.160156 -2.363281 6.816406 -3.304688 5.796875 -4.328125 C 5.234375 -4.878906 4.632812 -5.691406 4 -6.765625 C 3.375 -7.835938 2.851562 -8.953125 2.4375 -10.109375 C 2.019531 -11.273438 1.8125 -12.300781 1.8125 -13.1875 C 1.8125 -13.832031 1.8125 -14.898438 1.8125 -16.390625 C 1.8125 -17.878906 1.8125 -19.53125 1.8125 -21.34375 C 1.8125 -23.15625 1.8125 -24.898438 1.8125 -26.578125 C 1.8125 -28.253906 1.8125 -29.601562 1.8125 -30.625 C 1.8125 -32.625 2.125 -34.378906 2.75 -35.890625 C 3.382812 -37.398438 4.117188 -38.597656 4.953125 -39.484375 C 6.441406 -41.066406 7.847656 -42.125 9.171875 -42.65625 C 10.492188 -43.195312 12.109375 -43.582031 14.015625 -43.8125 C 14.066406 -43.851562 14.578125 -43.863281 15.546875 -43.84375 C 16.523438 -43.820312 17.722656 -43.8125 19.140625 -43.8125 C 20.566406 -43.8125 21.988281 -43.8125 23.40625 -43.8125 C 24.820312 -43.8125 25.972656 -43.8125 26.859375 -43.8125 C 28.671875 -43.8125 30.34375 -43.554688 31.875 -43.046875 C 33.414062 -42.535156 34.8125 -41.675781 36.0625 -40.46875 C 37.363281 -39.257812 38.421875 -37.710938 39.234375 -35.828125 C 40.054688 -33.941406 40.46875 -32.113281 40.46875 -30.34375 Z M 18.28125 -17.796875 C 18.28125 -15.972656 18.523438 -14.769531 19.015625 -14.1875 C 19.503906 -13.613281 20.117188 -13.328125 20.859375 -13.328125 C 21.785156 -13.328125 22.363281 -13.742188 22.59375 -14.578125 C 22.832031 -15.421875 22.953125 -16.097656 22.953125 -16.609375 C 22.953125 -18.367188 22.984375 -20.222656 23.046875 -22.171875 C 23.117188 -24.128906 23.132812 -25.757812 23.09375 -27.0625 C 23 -28.132812 22.832031 -29.039062 22.59375 -29.78125 C 22.363281 -30.53125 21.785156 -30.90625 20.859375 -30.90625 C 20.023438 -30.90625 19.429688 -30.679688 19.078125 -30.234375 C 18.734375 -29.796875 18.515625 -29.285156 18.421875 -28.703125 C 18.328125 -28.128906 18.28125 -27.65625 18.28125 -27.28125 C 18.28125 -26.8125 18.28125 -26.050781 18.28125 -25 C 18.28125 -23.957031 18.28125 -22.785156 18.28125 -21.484375 C 18.28125 -20.179688 18.28125 -18.953125 18.28125 -17.796875 Z M 18.28125 -17.796875 "/></g></g></g><path stroke-linecap="butt" transform="matrix(0.540469, 0, 0, 0.540469, 76.256008, 157.374246)" fill="none" stroke-linejoin="miter" d="M 75.762217 86.955704 C 75.762217 87.562815 75.776672 88.516848 75.820037 89.817802 C 75.863402 91.104301 75.906768 92.455847 75.950133 93.886897 C 76.007953 95.296263 76.065773 96.510487 76.101911 97.544022 C 76.145276 98.57033 76.166958 99.083484 76.166958 99.083484 C 76.166958 99.697824 75.906768 100.00138 75.379158 100.00138 L 4.253121 100.00138 C 3.833925 100.00138 3.624326 99.697824 3.624326 99.083484 L 3.624326 97.038096 C 3.624326 96.951366 3.624326 96.915228 3.624326 96.915228 C 3.624326 96.741768 3.624326 96.568307 3.624326 96.373164 L 3.624326 56.101415 C 3.624326 52.7623 3.624326 49.40873 3.624326 46.047933 C 3.624326 42.687135 3.711057 39.326338 3.87729 35.96554 C 3.87729 32.958892 3.833925 29.995608 3.747194 27.075689 C 3.747194 25.774735 3.725512 24.524374 3.689374 23.324606 C 3.646009 22.132065 3.667692 20.881703 3.747194 19.573522 C 3.833925 19.074823 4.086888 18.82186 4.506084 18.82186 L 40.781014 18.82186 C 41.221893 18.82186 41.438718 19.118188 41.438718 19.703617 C 41.438718 22.457303 41.525448 25.189306 41.691681 27.899627 C 41.857914 30.609947 41.98801 33.334723 42.067513 36.088408 C 42.154243 37.895289 42.197608 39.680486 42.197608 41.444002 C 42.197608 43.214744 42.197608 44.956577 42.197608 46.676727 C 42.284338 47.898178 42.284338 49.654466 42.197608 51.938363 C 42.110878 54.207804 42.031375 56.426653 41.944645 58.587682 C 41.857914 60.734256 41.857914 62.143623 41.944645 62.815782 C 41.944645 63.950503 41.944645 65.114134 41.944645 66.313903 C 41.944645 67.506444 42.248201 68.496614 42.855312 69.277186 C 43.195006 69.797568 44.185176 70.144489 45.818596 70.310722 C 47.459243 70.484182 49.179394 70.563685 50.986274 70.563685 C 52.793154 70.563685 54.130246 70.563685 54.990321 70.563685 C 55.850396 70.563685 57.187487 70.542003 58.994368 70.505865 C 60.801248 70.4625 62.752679 70.397452 64.855887 70.310722 C 66.973551 70.231219 69.004485 70.144489 70.934233 70.064986 C 72.871209 69.978256 74.396216 69.934891 75.509254 69.934891 C 75.950133 70.021621 76.123593 70.274584 76.04409 70.693781 C 76.04409 70.860014 76.04409 71.510491 76.04409 72.645211 C 76.04409 73.75825 76.007953 74.929108 75.950133 76.143332 C 75.906768 77.3431 75.885085 78.232085 75.885085 78.824742 C 75.798355 80.212426 75.762217 81.592883 75.762217 82.980567 C 75.762217 84.346568 75.762217 85.669205 75.762217 86.955704 Z M 75.762217 86.955704 " stroke="#000000" stroke-width="9.681525" stroke-opacity="1" stroke-miterlimit="4"/><g fill="#ffffff" fill-opacity="1"><g transform="translate(76.256008, 211.421129)"><g><path d="M 40.953125 -7.046875 C 40.953125 -6.722656 40.960938 -6.210938 40.984375 -5.515625 C 41.003906 -4.816406 41.023438 -4.082031 41.046875 -3.3125 C 41.078125 -2.539062 41.101562 -1.875 41.125 -1.3125 C 41.144531 -0.757812 41.15625 -0.484375 41.15625 -0.484375 C 41.15625 -0.160156 41.019531 0 40.75 0 L 2.296875 0 C 2.066406 0 1.953125 -0.160156 1.953125 -0.484375 L 1.953125 -1.609375 C 1.953125 -1.648438 1.953125 -1.671875 1.953125 -1.671875 C 1.953125 -1.765625 1.953125 -1.859375 1.953125 -1.953125 L 1.953125 -23.71875 C 1.953125 -25.53125 1.953125 -27.34375 1.953125 -29.15625 C 1.953125 -30.976562 2 -32.796875 2.09375 -34.609375 C 2.09375 -36.234375 2.066406 -37.835938 2.015625 -39.421875 C 2.015625 -40.117188 2.003906 -40.789062 1.984375 -41.4375 C 1.960938 -42.09375 1.972656 -42.769531 2.015625 -43.46875 C 2.066406 -43.738281 2.207031 -43.875 2.4375 -43.875 L 22.046875 -43.875 C 22.273438 -43.875 22.390625 -43.710938 22.390625 -43.390625 C 22.390625 -41.898438 22.4375 -40.421875 22.53125 -38.953125 C 22.625 -37.492188 22.695312 -36.019531 22.75 -34.53125 C 22.789062 -33.550781 22.8125 -32.582031 22.8125 -31.625 C 22.8125 -30.675781 22.8125 -29.738281 22.8125 -28.8125 C 22.863281 -28.164062 22.863281 -27.222656 22.8125 -25.984375 C 22.769531 -24.753906 22.722656 -23.554688 22.671875 -22.390625 C 22.628906 -21.234375 22.628906 -20.46875 22.671875 -20.09375 C 22.671875 -19.488281 22.671875 -18.859375 22.671875 -18.203125 C 22.671875 -17.554688 22.832031 -17.023438 23.15625 -16.609375 C 23.34375 -16.328125 23.878906 -16.140625 24.765625 -16.046875 C 25.648438 -15.953125 26.578125 -15.90625 27.546875 -15.90625 C 28.523438 -15.90625 29.25 -15.90625 29.71875 -15.90625 C 30.1875 -15.90625 30.90625 -15.914062 31.875 -15.9375 C 32.851562 -15.957031 33.910156 -15.988281 35.046875 -16.03125 C 36.191406 -16.082031 37.285156 -16.128906 38.328125 -16.171875 C 39.378906 -16.222656 40.207031 -16.25 40.8125 -16.25 C 41.039062 -16.207031 41.132812 -16.070312 41.09375 -15.84375 C 41.09375 -15.75 41.09375 -15.398438 41.09375 -14.796875 C 41.09375 -14.191406 41.078125 -13.5625 41.046875 -12.90625 C 41.023438 -12.257812 41.015625 -11.769531 41.015625 -11.4375 C 40.972656 -10.695312 40.953125 -9.953125 40.953125 -9.203125 C 40.953125 -8.460938 40.953125 -7.742188 40.953125 -7.046875 Z M 40.953125 -7.046875 "/></g></g></g><path stroke-linecap="butt" transform="matrix(0.713261, 0, 0, 0.713261, 41.344948, 157.614086)" fill="none" stroke-linejoin="miter" d="M 60.071254 58.012601 L 60.071254 64.781691 C 60.071254 66.747794 59.676938 68.445543 58.893783 69.880415 C 58.110628 71.30981 57.447958 72.372272 56.894821 73.051372 C 55.947367 74.283609 54.890381 75.225586 53.723863 75.877303 C 52.573775 76.523543 51.757761 77.016438 51.275819 77.350511 C 49.840947 78.182956 48.30202 78.664897 46.65356 78.801812 C 45.02153 78.933251 43.970021 78.99897 43.504509 78.99897 L 3.371912 78.99897 C 2.824251 78.99897 2.58328 78.72514 2.648999 78.177479 C 2.796868 77.158829 2.93926 75.428221 3.076175 72.980176 C 3.207614 70.510225 3.289763 67.799303 3.322622 64.830981 C 3.355482 61.868135 3.388342 59.069587 3.421201 56.435338 C 3.454061 53.806565 3.437631 51.807602 3.371912 50.43845 C 3.306193 49.140493 3.240473 47.234633 3.174754 44.715392 C 3.109035 42.185198 3.054268 39.561902 3.021409 36.845504 C 2.988549 34.112675 2.955689 31.659154 2.92283 29.473987 C 2.88997 27.277866 2.87354 25.842994 2.87354 25.174848 C 2.87354 24.210965 2.88997 22.978727 2.92283 21.478136 C 2.955689 19.977545 2.972119 18.613869 2.972119 17.381632 C 2.972119 16.149395 2.972119 15.464819 2.972119 15.33338 C 2.972119 14.862392 3.207614 14.632374 3.673125 14.632374 L 43.805723 14.632374 C 45.300837 14.632374 46.971203 14.807625 48.800391 15.158128 C 50.651485 15.486725 52.058974 15.99605 53.022857 16.680626 C 53.838872 17.211857 54.742513 17.929293 55.722826 18.827457 C 56.719569 19.714668 57.562967 21.012625 58.247543 22.726803 C 58.93212 24.424552 59.271669 26.774018 59.271669 29.7752 C 59.271669 32.091806 58.964979 33.915517 58.346122 35.246334 C 57.732742 36.57715 57.048166 37.787481 56.29787 38.871849 C 55.481855 39.967171 54.589168 40.826999 53.625285 41.445856 C 52.672354 42.059236 51.757761 42.601421 50.876026 43.066933 C 50.257169 43.351716 49.808087 43.702219 49.523304 44.118442 C 49.260426 44.518234 49.567117 44.956363 50.448851 45.443781 C 51.264866 45.909293 52.184936 46.281703 53.198109 46.566486 C 54.233188 46.83484 55.399706 47.579659 56.697663 48.817373 C 57.798461 49.961985 58.630906 51.254465 59.194997 52.689336 C 59.780994 54.118732 60.071254 55.893153 60.071254 58.012601 Z M 32.036488 67.629528 C 32.852503 66.616355 33.208483 65.488174 33.109904 64.255936 C 33.011325 63.023699 32.956559 61.835275 32.956559 60.685187 C 32.890839 59.45295 32.781307 58.116657 32.633439 56.687262 C 32.502 55.25239 31.828377 54.162544 30.61257 53.412249 C 30.059432 52.996026 29.478911 52.864588 28.860054 53.012456 C 28.109759 53.012456 27.737349 53.488921 27.737349 54.436375 C 27.803069 55.25239 27.803069 56.397001 27.737349 57.859256 C 27.67163 59.326988 27.605911 60.833055 27.534715 62.382936 C 27.468996 63.916387 27.468996 65.263633 27.534715 66.430151 C 27.605911 67.580239 27.803069 68.253862 28.137142 68.456496 C 28.821718 68.938438 29.517248 69.0644 30.234684 68.828906 C 30.952119 68.582458 31.54907 68.182666 32.036488 67.629528 Z M 30.61257 41.11726 C 32.173403 40.520309 33.060614 39.41951 33.257772 37.82034 C 33.460407 36.20474 33.558986 34.747962 33.558986 33.444529 C 33.493266 32.146572 33.411117 30.892429 33.307062 29.676621 C 33.208483 28.438908 32.682728 27.277866 31.735275 26.177068 C 30.984979 25.361053 30.125151 25.191278 29.161268 25.678696 C 28.542411 26.007293 28.235721 26.483758 28.235721 27.102615 C 28.31787 29.567089 28.30144 31.757733 28.186431 33.674547 C 28.087852 35.569454 27.967367 37.754621 27.835928 40.219096 C 27.835928 40.750327 28.159048 41.095353 28.810765 41.243222 C 29.462482 41.37466 30.059432 41.336324 30.61257 41.11726 Z M 30.61257 41.11726 " stroke="#000000" stroke-width="7.6767" stroke-opacity="1" stroke-miterlimit="4"/><g fill="#ffffff" fill-opacity="1"><g transform="translate(41.344948, 213.961672)"><g><path d="M 42.84375 -14.96875 L 42.84375 -10.140625 C 42.84375 -8.734375 42.5625 -7.519531 42 -6.5 C 41.445312 -5.476562 40.976562 -4.722656 40.59375 -4.234375 C 39.90625 -3.359375 39.144531 -2.6875 38.3125 -2.21875 C 37.488281 -1.757812 36.910156 -1.410156 36.578125 -1.171875 C 35.554688 -0.585938 34.457031 -0.242188 33.28125 -0.140625 C 32.113281 -0.046875 31.363281 0 31.03125 0 L 2.40625 0 C 2.019531 0 1.847656 -0.191406 1.890625 -0.578125 C 1.992188 -1.304688 2.09375 -2.546875 2.1875 -4.296875 C 2.289062 -6.054688 2.351562 -7.992188 2.375 -10.109375 C 2.394531 -12.222656 2.414062 -14.21875 2.4375 -16.09375 C 2.46875 -17.96875 2.457031 -19.390625 2.40625 -20.359375 C 2.363281 -21.285156 2.316406 -22.648438 2.265625 -24.453125 C 2.210938 -26.253906 2.171875 -28.128906 2.140625 -30.078125 C 2.117188 -32.023438 2.097656 -33.773438 2.078125 -35.328125 C 2.054688 -36.890625 2.046875 -37.910156 2.046875 -38.390625 C 2.046875 -39.078125 2.054688 -39.953125 2.078125 -41.015625 C 2.097656 -42.085938 2.109375 -43.0625 2.109375 -43.9375 C 2.109375 -44.820312 2.109375 -45.3125 2.109375 -45.40625 C 2.109375 -45.75 2.28125 -45.921875 2.625 -45.921875 L 31.25 -45.921875 C 32.3125 -45.921875 33.5 -45.796875 34.8125 -45.546875 C 36.132812 -45.304688 37.132812 -44.941406 37.8125 -44.453125 C 38.394531 -44.066406 39.039062 -43.554688 39.75 -42.921875 C 40.457031 -42.285156 41.050781 -41.359375 41.53125 -40.140625 C 42.019531 -38.929688 42.265625 -37.253906 42.265625 -35.109375 C 42.265625 -33.453125 42.046875 -32.148438 41.609375 -31.203125 C 41.171875 -30.253906 40.6875 -29.390625 40.15625 -28.609375 C 39.570312 -27.835938 38.9375 -27.234375 38.25 -26.796875 C 37.570312 -26.359375 36.914062 -25.96875 36.28125 -25.625 C 35.84375 -25.425781 35.523438 -25.179688 35.328125 -24.890625 C 35.140625 -24.597656 35.359375 -24.28125 35.984375 -23.9375 C 36.566406 -23.601562 37.222656 -23.335938 37.953125 -23.140625 C 38.691406 -22.941406 39.519531 -22.40625 40.4375 -21.53125 C 41.21875 -20.707031 41.8125 -19.785156 42.21875 -18.765625 C 42.632812 -17.742188 42.84375 -16.476562 42.84375 -14.96875 Z M 22.84375 -8.109375 C 23.425781 -8.835938 23.679688 -9.640625 23.609375 -10.515625 C 23.535156 -11.390625 23.5 -12.238281 23.5 -13.0625 C 23.457031 -13.9375 23.382812 -14.882812 23.28125 -15.90625 C 23.1875 -16.9375 22.703125 -17.71875 21.828125 -18.25 C 21.441406 -18.539062 21.03125 -18.640625 20.59375 -18.546875 C 20.050781 -18.546875 19.78125 -18.203125 19.78125 -17.515625 C 19.832031 -16.929688 19.832031 -16.113281 19.78125 -15.0625 C 19.726562 -14.019531 19.675781 -12.953125 19.625 -11.859375 C 19.582031 -10.765625 19.582031 -9.800781 19.625 -8.96875 C 19.675781 -8.144531 19.828125 -7.660156 20.078125 -7.515625 C 20.566406 -7.179688 21.066406 -7.097656 21.578125 -7.265625 C 22.085938 -7.429688 22.507812 -7.710938 22.84375 -8.109375 Z M 21.828125 -27.015625 C 22.941406 -27.453125 23.570312 -28.238281 23.71875 -29.375 C 23.863281 -30.519531 23.9375 -31.554688 23.9375 -32.484375 C 23.894531 -33.410156 23.835938 -34.3125 23.765625 -35.1875 C 23.691406 -36.0625 23.3125 -36.890625 22.625 -37.671875 C 22.09375 -38.253906 21.488281 -38.375 20.8125 -38.03125 C 20.363281 -37.789062 20.140625 -37.453125 20.140625 -37.015625 C 20.191406 -35.265625 20.179688 -33.707031 20.109375 -32.34375 C 20.035156 -30.976562 19.953125 -29.421875 19.859375 -27.671875 C 19.859375 -27.273438 20.085938 -27.03125 20.546875 -26.9375 C 21.015625 -26.84375 21.441406 -26.867188 21.828125 -27.015625 Z M 21.828125 -27.015625 "/></g></g></g></svg>