<svg xmlns="http://www.w3.org/2000/svg" xmlns:xlink="http://www.w3.org/1999/xlink" width="500" zoomAndPan="magnify" viewBox="0 0 375 374.999991" height="500" preserveAspectRatio="xMidYMid meet" version="1.0"><defs><g/><clipPath id="7f964ce5bc"><path d="M 205 87 L 228 87 L 228 133 L 205 133 Z M 205 87 " clip-rule="nonzero"/></clipPath><clipPath id="e98a42efef"><path d="M 195.042969 93.425781 L 225.269531 82.183594 L 239.910156 121.546875 L 209.683594 132.792969 Z M 195.042969 93.425781 " clip-rule="nonzero"/></clipPath><clipPath id="70200731bf"><path d="M 195.042969 93.425781 L 225.269531 82.183594 L 239.910156 121.546875 L 209.683594 132.792969 Z M 195.042969 93.425781 " clip-rule="nonzero"/></clipPath><clipPath id="2d25c68ca3"><path d="M 121.566406 222.777344 L 253.433594 222.777344 L 253.433594 244.496094 L 121.566406 244.496094 Z M 121.566406 222.777344 " clip-rule="nonzero"/></clipPath><clipPath id="954666ce7f"><path d="M 125 67 L 260 67 L 260 347 L 125 347 Z M 125 67 " clip-rule="nonzero"/></clipPath><clipPath id="4b5bb503d4"><path d="M 62.917969 106.445312 L 248.492188 37.414062 L 337.660156 277.117188 L 152.082031 346.148438 Z M 62.917969 106.445312 " clip-rule="nonzero"/></clipPath><clipPath id="10c4954747"><path d="M 62.917969 106.445312 L 248.492188 37.414062 L 337.660156 277.117188 L 152.082031 346.148438 Z M 62.917969 106.445312 " clip-rule="nonzero"/></clipPath></defs><g clip-path="url(#7f964ce5bc)"><g clip-path="url(#e98a42efef)"><g clip-path="url(#70200731bf)"><path fill="#000000" d="M 211.679688 87.242188 L 205.351562 110.742188 L 212.792969 110.488281 L 209.683594 132.789062 L 225.117188 103.386719 L 218.085938 103.554688 L 227.289062 87.042969 Z M 211.679688 87.242188 " fill-opacity="1" fill-rule="nonzero"/></g></g></g><g clip-path="url(#2d25c68ca3)"><path fill="#000000" d="M 121.566406 222.777344 L 253.402344 222.777344 L 253.402344 244.496094 L 121.566406 244.496094 Z M 121.566406 222.777344 " fill-opacity="1" fill-rule="nonzero"/></g><path stroke-linecap="butt" transform="matrix(4.382843, 0, 0, 4.382843, 49.579177, -27.259281)" fill="none" stroke-linejoin="miter" d="M 60.07065 58.010633 L 60.07065 64.781531 C 60.07065 66.74765 59.679387 68.44639 58.89597 69.879536 C 58.113444 71.31179 57.446782 72.369715 56.896875 73.053311 C 55.947683 74.285923 54.889758 75.227093 53.723991 75.876821 C 52.574266 76.526549 51.757873 77.017633 51.27481 77.350964 C 49.842556 78.1834 48.301568 78.666463 46.651847 78.800152 C 45.019951 78.93295 43.970047 78.999794 43.503918 78.999794 L 3.373177 78.999794 C 2.82327 78.999794 2.581739 78.725286 2.648583 78.175379 C 2.798315 77.159343 2.940025 75.426735 3.073714 72.977554 C 3.206512 70.51233 3.29029 67.797554 3.323267 64.832333 C 3.357134 61.867113 3.390111 59.067667 3.423088 56.435777 C 3.456955 53.803888 3.440022 51.804793 3.373177 50.439384 C 3.306333 49.139927 3.240379 47.231741 3.173535 44.716606 C 3.106691 42.184538 3.05678 39.56067 3.023803 36.845894 C 2.989936 34.113292 2.956959 31.65609 2.923982 29.474287 C 2.890114 27.275549 2.873181 25.842404 2.873181 25.176633 C 2.873181 24.210508 2.890114 22.977005 2.923982 21.477906 C 2.956959 19.978808 2.973893 18.612507 2.973893 17.379895 C 2.973893 16.147283 2.973893 15.464579 2.973893 15.33089 C 2.973893 14.864761 3.206512 14.631251 3.673532 14.631251 L 43.803382 14.631251 C 45.30248 14.631251 46.969135 14.805938 48.801565 15.156203 C 50.650037 15.489534 52.058227 15.997552 53.024352 16.680256 C 53.840746 17.21323 54.740027 17.929802 55.723086 18.829083 C 56.722188 19.712321 57.563537 21.011778 58.246242 22.727452 C 58.929838 24.427084 59.27119 26.775553 59.27119 29.77375 C 59.27119 32.089242 58.962814 33.91365 58.346063 35.246083 C 57.730202 36.579407 57.047498 37.787064 56.297057 38.869944 C 55.481555 39.968867 54.590295 40.82715 53.62417 41.44301 C 52.674087 42.059762 51.757873 42.600756 50.875526 43.067776 C 50.258774 43.350306 49.808688 43.700571 49.526159 44.116789 C 49.259672 44.516964 49.567157 44.958138 50.450395 45.4412 C 51.266789 45.90822 52.183003 46.282549 53.199039 46.56597 C 54.232009 46.832456 55.397776 47.582006 56.697233 48.814618 C 57.797047 49.964342 58.629483 51.254886 59.196324 52.688031 C 59.779208 54.120285 60.07065 55.894783 60.07065 58.010633 Z M 32.0343 67.630888 C 32.850694 66.613961 33.20898 65.490083 33.109159 64.257471 C 33.008447 63.024859 32.958536 61.833245 32.958536 60.68352 C 32.892583 59.450908 32.783849 58.118475 32.634118 56.686221 C 32.500429 55.253076 31.825745 54.162175 30.610067 53.412625 C 30.06016 52.996407 29.477276 52.862718 28.860525 53.01245 C 28.110976 53.01245 27.736647 53.487491 27.736647 54.436682 C 27.803491 55.253076 27.803491 56.39478 27.736647 57.86001 C 27.669802 59.326132 27.602958 60.834143 27.536113 62.383152 C 27.47016 63.916118 27.47016 65.264594 27.536113 66.431253 C 27.602958 67.580977 27.803491 68.255661 28.135931 68.455303 C 28.819527 68.938366 29.519166 69.063142 30.234847 68.829632 C 30.95142 68.580079 31.551237 68.179904 32.0343 67.630888 Z M 30.610067 41.118592 C 32.17601 40.518774 33.059248 39.41896 33.25889 37.82004 C 33.458533 36.204187 33.558354 34.746978 33.558354 33.447521 C 33.4924 32.148065 33.408622 30.890498 33.308801 29.673929 C 33.20898 28.441317 32.684028 27.275549 31.734837 26.175735 C 30.985287 25.359341 30.127005 25.192676 29.160879 25.675739 C 28.544128 26.00907 28.236643 26.484111 28.236643 27.099971 C 28.31953 29.566086 28.302596 31.756802 28.185841 33.672119 C 28.08602 35.571393 27.969265 37.753196 27.836468 40.219311 C 27.836468 40.752284 28.160886 41.093637 28.810614 41.243368 C 29.460342 41.377057 30.06016 41.335168 30.610067 41.118592 Z M 30.610067 41.118592 " stroke="#000000" stroke-width="7.6767" stroke-opacity="1" stroke-miterlimit="4"/><g fill="#ffffff" fill-opacity="1"><g transform="translate(49.579177, 318.985277)"><g><path d="M 263.3125 -91.953125 L 263.3125 -62.359375 C 263.3125 -53.679688 261.59375 -46.203125 258.15625 -39.921875 C 254.71875 -33.640625 251.800781 -29.003906 249.40625 -26.015625 C 245.21875 -20.628906 240.582031 -16.515625 235.5 -13.671875 C 230.414062 -10.835938 226.828125 -8.671875 224.734375 -7.171875 C 218.453125 -3.585938 211.722656 -1.492188 204.546875 -0.890625 C 197.367188 -0.296875 192.734375 0 190.640625 0 L 14.796875 0 C 12.410156 0 11.363281 -1.195312 11.65625 -3.59375 C 12.257812 -8.070312 12.859375 -15.691406 13.453125 -26.453125 C 14.054688 -37.222656 14.429688 -49.113281 14.578125 -62.125 C 14.722656 -75.132812 14.867188 -87.394531 15.015625 -98.90625 C 15.171875 -110.425781 15.097656 -119.175781 14.796875 -125.15625 C 14.503906 -130.832031 14.207031 -139.203125 13.90625 -150.265625 C 13.601562 -161.335938 13.378906 -172.851562 13.234375 -184.8125 C 13.085938 -196.769531 12.9375 -207.535156 12.78125 -217.109375 C 12.632812 -226.679688 12.5625 -232.960938 12.5625 -235.953125 C 12.5625 -240.140625 12.632812 -245.519531 12.78125 -252.09375 C 12.9375 -258.675781 13.015625 -264.660156 13.015625 -270.046875 C 13.015625 -275.429688 13.015625 -278.421875 13.015625 -279.015625 C 13.015625 -281.109375 14.0625 -282.15625 16.15625 -282.15625 L 191.984375 -282.15625 C 198.566406 -282.15625 205.894531 -281.40625 213.96875 -279.90625 C 222.039062 -278.414062 228.171875 -276.175781 232.359375 -273.1875 C 235.953125 -270.789062 239.914062 -267.648438 244.25 -263.765625 C 248.582031 -259.878906 252.242188 -254.195312 255.234375 -246.71875 C 258.234375 -239.238281 259.734375 -228.921875 259.734375 -215.765625 C 259.734375 -205.597656 258.382812 -197.597656 255.6875 -191.765625 C 253 -185.929688 250.007812 -180.625 246.71875 -175.84375 C 243.125 -171.0625 239.234375 -167.320312 235.046875 -164.625 C 230.867188 -161.9375 226.832031 -159.546875 222.9375 -157.453125 C 220.25 -156.253906 218.304688 -154.757812 217.109375 -152.96875 C 215.910156 -151.175781 217.257812 -149.234375 221.15625 -147.140625 C 224.738281 -145.046875 228.769531 -143.398438 233.25 -142.203125 C 237.738281 -141.003906 242.828125 -137.710938 248.515625 -132.328125 C 253.296875 -127.242188 256.957031 -121.5625 259.5 -115.28125 C 262.039062 -109 263.3125 -101.222656 263.3125 -91.953125 Z M 140.40625 -49.796875 C 143.988281 -54.273438 145.554688 -59.207031 145.109375 -64.59375 C 144.660156 -69.976562 144.4375 -75.210938 144.4375 -80.296875 C 144.144531 -85.679688 143.695312 -91.507812 143.09375 -97.78125 C 142.5 -104.0625 139.507812 -108.847656 134.125 -112.140625 C 131.726562 -113.941406 129.1875 -114.539062 126.5 -113.9375 C 123.207031 -113.9375 121.5625 -111.84375 121.5625 -107.65625 C 121.863281 -104.070312 121.863281 -99.0625 121.5625 -92.625 C 121.257812 -86.195312 120.957031 -79.617188 120.65625 -72.890625 C 120.363281 -66.160156 120.363281 -60.253906 120.65625 -55.171875 C 120.957031 -50.085938 121.859375 -47.097656 123.359375 -46.203125 C 126.347656 -44.109375 129.410156 -43.582031 132.546875 -44.625 C 135.691406 -45.675781 138.3125 -47.398438 140.40625 -49.796875 Z M 134.125 -165.96875 C 141 -168.664062 144.882812 -173.523438 145.78125 -180.546875 C 146.6875 -187.578125 147.140625 -193.9375 147.140625 -199.625 C 146.835938 -205.300781 146.460938 -210.828125 146.015625 -216.203125 C 145.566406 -221.585938 143.25 -226.675781 139.0625 -231.46875 C 135.769531 -235.050781 132.03125 -235.796875 127.84375 -233.703125 C 125.15625 -232.210938 123.8125 -230.117188 123.8125 -227.421875 C 124.101562 -216.660156 124.023438 -207.09375 123.578125 -198.71875 C 123.128906 -190.34375 122.609375 -180.773438 122.015625 -170.015625 C 122.015625 -167.617188 123.429688 -166.117188 126.265625 -165.515625 C 129.109375 -164.921875 131.726562 -165.070312 134.125 -165.96875 Z M 134.125 -165.96875 "/></g></g></g><g clip-path="url(#954666ce7f)"><g clip-path="url(#4b5bb503d4)"><g clip-path="url(#10c4954747)"><path fill="#000000" d="M 164.292969 68.734375 L 125.738281 211.941406 L 171.078125 210.402344 L 152.148438 346.3125 L 246.1875 167.132812 L 203.347656 168.148438 L 259.425781 67.53125 Z M 164.292969 68.734375 " fill-opacity="1" fill-rule="nonzero"/></g></g></g></svg>