<svg xmlns="http://www.w3.org/2000/svg" xmlns:xlink="http://www.w3.org/1999/xlink" width="500" zoomAndPan="magnify" viewBox="0 0 375 374.999991" height="500" preserveAspectRatio="xMidYMid meet" version="1.0"><defs><g/><clipPath id="1cb164b573"><path d="M 17.832031 152.792969 L 82.332031 152.792969 L 82.332031 217.292969 L 17.832031 217.292969 Z M 17.832031 152.792969 " clip-rule="nonzero"/></clipPath></defs><g clip-path="url(#1cb164b573)"><path fill="#ffffff" d="M 82.449219 158.050781 L 82.449219 212.15625 C 82.449219 215.058594 80.097656 217.410156 77.195312 217.410156 L 23.085938 217.410156 C 20.183594 217.410156 17.832031 215.058594 17.832031 212.15625 L 17.832031 172.621094 L 41.28125 172.621094 L 41.28125 172.601562 L 53.097656 172.601562 C 57.265625 172.601562 57.613281 174.480469 57.613281 175.75 C 57.613281 176.492188 58.367188 179.265625 53.097656 179.265625 L 29.8125 179.265625 L 29.8125 208.171875 L 41.28125 208.171875 L 41.28125 189.589844 L 54.085938 189.589844 C 56.839844 189.589844 58.933594 190.851562 58.933594 193.503906 C 58.933594 196.949219 54.761719 197.417969 54.085938 197.417969 L 49.371094 197.417969 L 49.371094 208.171875 L 52.34375 208.171875 C 57.664062 208.171875 61.898438 207.164062 64.925781 205.167969 C 68.605469 202.746094 70.472656 198.964844 70.472656 193.933594 C 70.472656 192.050781 69.792969 189.796875 68.65625 187.902344 C 67.746094 186.382812 66.578125 185.140625 65.210938 184.21875 C 66.15625 183.480469 66.945312 182.625 67.570312 181.65625 C 68.617188 180.019531 69.152344 178.148438 69.152344 176.089844 C 69.152344 167.285156 62.867188 162.03125 52.34375 162.03125 L 17.832031 162.03125 L 17.832031 158.050781 C 17.832031 155.148438 20.183594 152.792969 23.085938 152.792969 L 77.195312 152.792969 C 80.097656 152.792969 82.449219 155.148438 82.449219 158.050781 " fill-opacity="1" fill-rule="nonzero"/></g><g fill="#ffffff" fill-opacity="1"><g transform="translate(89.996074, 205.222989)"><g><path d="M 4.15625 -41.546875 L 15.90625 -41.546875 L 15.90625 -9.3125 L 35.734375 -9.3125 L 35.734375 0 L 4.15625 0 Z M 4.15625 -41.546875 "/></g></g></g><g fill="#ffffff" fill-opacity="1"><g transform="translate(126.202917, 205.222989)"><g><path d="M 25.109375 0.828125 C 20.710938 0.828125 16.765625 -0.0976562 13.265625 -1.953125 C 9.765625 -3.816406 7.015625 -6.390625 5.015625 -9.671875 C 3.015625 -12.960938 2.015625 -16.664062 2.015625 -20.78125 C 2.015625 -24.894531 3.015625 -28.59375 5.015625 -31.875 C 7.015625 -35.15625 9.765625 -37.722656 13.265625 -39.578125 C 16.765625 -41.441406 20.710938 -42.375 25.109375 -42.375 C 29.503906 -42.375 33.453125 -41.441406 36.953125 -39.578125 C 40.453125 -37.722656 43.203125 -35.15625 45.203125 -31.875 C 47.203125 -28.59375 48.203125 -24.894531 48.203125 -20.78125 C 48.203125 -16.664062 47.203125 -12.960938 45.203125 -9.671875 C 43.203125 -6.390625 40.453125 -3.816406 36.953125 -1.953125 C 33.453125 -0.0976562 29.503906 0.828125 25.109375 0.828125 Z M 25.109375 -8.90625 C 27.203125 -8.90625 29.097656 -9.398438 30.796875 -10.390625 C 32.503906 -11.378906 33.851562 -12.773438 34.84375 -14.578125 C 35.832031 -16.378906 36.328125 -18.445312 36.328125 -20.78125 C 36.328125 -23.113281 35.832031 -25.175781 34.84375 -26.96875 C 33.851562 -28.769531 32.503906 -30.164062 30.796875 -31.15625 C 29.097656 -32.144531 27.203125 -32.640625 25.109375 -32.640625 C 23.015625 -32.640625 21.113281 -32.144531 19.40625 -31.15625 C 17.707031 -30.164062 16.363281 -28.769531 15.375 -26.96875 C 14.382812 -25.175781 13.890625 -23.113281 13.890625 -20.78125 C 13.890625 -18.445312 14.382812 -16.378906 15.375 -14.578125 C 16.363281 -12.773438 17.707031 -11.378906 19.40625 -10.390625 C 21.113281 -9.398438 23.015625 -8.90625 25.109375 -8.90625 Z M 25.109375 -8.90625 "/></g></g></g><g fill="#ffffff" fill-opacity="1"><g transform="translate(176.417664, 205.222989)"><g><path d="M 32 -21.671875 L 42.375 -21.671875 L 42.375 -4.453125 C 40.007812 -2.753906 37.28125 -1.445312 34.1875 -0.53125 C 31.101562 0.375 28.019531 0.828125 24.9375 0.828125 C 20.582031 0.828125 16.660156 -0.0859375 13.171875 -1.921875 C 9.691406 -3.765625 6.960938 -6.328125 4.984375 -9.609375 C 3.003906 -12.898438 2.015625 -16.625 2.015625 -20.78125 C 2.015625 -24.9375 3.003906 -28.65625 4.984375 -31.9375 C 6.960938 -35.21875 9.710938 -37.773438 13.234375 -39.609375 C 16.753906 -41.453125 20.734375 -42.375 25.171875 -42.375 C 29.046875 -42.375 32.523438 -41.722656 35.609375 -40.421875 C 38.703125 -39.117188 41.273438 -37.238281 43.328125 -34.78125 L 35.859375 -28.015625 C 33.046875 -31.097656 29.679688 -32.640625 25.765625 -32.640625 C 22.203125 -32.640625 19.332031 -31.5625 17.15625 -29.40625 C 14.976562 -27.25 13.890625 -24.375 13.890625 -20.78125 C 13.890625 -18.476562 14.382812 -16.425781 15.375 -14.625 C 16.363281 -12.832031 17.75 -11.429688 19.53125 -10.421875 C 21.3125 -9.410156 23.347656 -8.90625 25.640625 -8.90625 C 27.898438 -8.90625 30.019531 -9.359375 32 -10.265625 Z M 32 -21.671875 "/></g></g></g><g fill="#ffffff" fill-opacity="1"><g transform="translate(222.121391, 205.222989)"><g><path d="M 18.75 0.828125 C 15.394531 0.828125 12.132812 0.414062 8.96875 -0.40625 C 5.800781 -1.238281 3.226562 -2.347656 1.25 -3.734375 L 5.109375 -12.40625 C 6.960938 -11.175781 9.113281 -10.1875 11.5625 -9.4375 C 14.019531 -8.6875 16.4375 -8.3125 18.8125 -8.3125 C 23.320312 -8.3125 25.578125 -9.4375 25.578125 -11.6875 C 25.578125 -12.875 24.929688 -13.753906 23.640625 -14.328125 C 22.359375 -14.910156 20.296875 -15.515625 17.453125 -16.140625 C 14.328125 -16.816406 11.710938 -17.539062 9.609375 -18.3125 C 7.515625 -19.082031 5.710938 -20.316406 4.203125 -22.015625 C 2.703125 -23.722656 1.953125 -26.019531 1.953125 -28.90625 C 1.953125 -31.4375 2.644531 -33.722656 4.03125 -35.765625 C 5.414062 -37.804688 7.484375 -39.414062 10.234375 -40.59375 C 12.984375 -41.78125 16.359375 -42.375 20.359375 -42.375 C 23.085938 -42.375 25.773438 -42.066406 28.421875 -41.453125 C 31.078125 -40.847656 33.414062 -39.953125 35.4375 -38.765625 L 31.8125 -30.03125 C 27.851562 -32.164062 24.015625 -33.234375 20.296875 -33.234375 C 17.960938 -33.234375 16.257812 -32.882812 15.1875 -32.1875 C 14.125 -31.5 13.59375 -30.601562 13.59375 -29.5 C 13.59375 -28.394531 14.222656 -27.5625 15.484375 -27 C 16.753906 -26.445312 18.796875 -25.875 21.609375 -25.28125 C 24.773438 -24.613281 27.394531 -23.894531 29.46875 -23.125 C 31.550781 -22.351562 33.351562 -21.125 34.875 -19.4375 C 36.394531 -17.757812 37.15625 -15.472656 37.15625 -12.578125 C 37.15625 -10.085938 36.460938 -7.832031 35.078125 -5.8125 C 33.691406 -3.800781 31.613281 -2.191406 28.84375 -0.984375 C 26.070312 0.222656 22.707031 0.828125 18.75 0.828125 Z M 18.75 0.828125 "/></g></g></g><g fill="#ffffff" fill-opacity="1"><g transform="translate(260.524388, 205.222989)"><g><path d="M 4.15625 -41.546875 L 15.90625 -41.546875 L 15.90625 0 L 4.15625 0 Z M 4.15625 -41.546875 "/></g></g></g><g fill="#ffffff" fill-opacity="1"><g transform="translate(280.645896, 205.222989)"><g><path d="M 15.90625 -32.46875 L 15.90625 -23.328125 L 34.25 -23.328125 L 34.25 -14.25 L 15.90625 -14.25 L 15.90625 0 L 4.15625 0 L 4.15625 -41.546875 L 36.75 -41.546875 L 36.75 -32.46875 Z M 15.90625 -32.46875 "/></g></g></g><g fill="#ffffff" fill-opacity="1"><g transform="translate(318.752121, 205.222989)"><g><path d="M 26.421875 -14.90625 L 26.421875 0 L 14.65625 0 L 14.65625 -15.078125 L -1.1875 -41.546875 L 11.21875 -41.546875 L 21.078125 -25.046875 L 30.921875 -41.546875 L 42.328125 -41.546875 Z M 26.421875 -14.90625 "/></g></g></g></svg>